ffmpeg started on 2026-01-13 at 10:03:41
Report written to "D:\Convert\FFMetrics\reports\psnr_report-6.txt"
Log level: 32
Command line:
ffmpeg -hide_banner -nostdin -r 24000/1001 -i "F:\\Convert\\files\\[DC] Make Heroine ga Oosugiru - 07_Telegram_HEVC(110).mkv" -r 24000/1001 -i "F:\\Convert\\files\\[DC] Make Heroine ga Oosugiru - 07_Telegram.mp4" -lavfi "[0:v]settb=AVTB,setpts=PTS-STARTPTS,format=pix_fmts=yuv420p10le,fps=24000/1001,scale=1920:1080:flags=lanczos:param0=3:out_range=limited:out_color_matrix=bt709:out_chroma_loc=left,setsar=1/1,setdar=(1920/1080)*(1/1),colorspace=format=yuv420p10:range=tv:primaries=bt709:trc=bt709:space=bt709:fast=0[main];[1:v]settb=AVTB,setpts=PTS-STARTPTS,format=pix_fmts=yuv420p,fps=24000/1001,scale=1920:1080:flags=lanczos:param0=3:out_range=limited:out_color_matrix=bt709:out_chroma_loc=left,setsar=1.000,setdar=1.778,colorspace=format=yuv420p:range=tv:primaries=bt709:trc=bt709:space=bt709:fast=0[ref];[main][ref]psnr=eof_action=endall:stats_file='D\\:/Convert/FFMetrics/logs/psnr_logfile-6.txt'" -f null -
Input #0, matroska,webm, from 'F:\Convert\files\[DC] Make Heroine ga Oosugiru - 07_Telegram_HEVC(110).mkv':
  Metadata:
    COMPATIBLE_BRANDS: isomiso2avc1mp41
    MAJOR_BRAND     : isom
    MINOR_VERSION   : 512
    ENCODER         : Lavf61.7.100
  Duration: 00:24:06.79, start: -0.021000, bitrate: 973 kb/s
  Stream #0:0: Video: hevc (Main 10), yuv420p10le(tv, bt709, progressive), 1920x1080 [SAR 1:1 DAR 16:9], 23.98 fps, 23.98 tbr, 1k tbn (default)
      Metadata:
        HANDLER_NAME    : VideoHandler
        VENDOR_ID       : [0][0][0][0]
        ENCODER         : Lavc61.19.100 libx265
        BPS             : 776818
        DURATION        : 00:24:06.569708333
        NUMBER_OF_FRAMES: 34683
        NUMBER_OF_BYTES : 140465249
        _STATISTICS_WRITING_APP: mkvpropedit v94.0 ('Initiate') 64-bit
        _STATISTICS_WRITING_DATE_UTC: 2026-01-12 13:40:47
        _STATISTICS_TAGS: BPS DURATION NUMBER_OF_FRAMES NUMBER_OF_BYTES
  Stream #0:1: Audio: aac (LC), 48000 Hz, stereo, fltp (default)
      Metadata:
        HANDLER_NAME    : SoundHandler
        VENDOR_ID       : [0][0][0][0]
        ENCODER         : Lavc61.19.100 aac
        BPS             : 193194
        DURATION        : 00:24:06.784000000
        NUMBER_OF_FRAMES: 67819
        NUMBER_OF_BYTES : 34938755
        _STATISTICS_WRITING_APP: mkvpropedit v94.0 ('Initiate') 64-bit
        _STATISTICS_WRITING_DATE_UTC: 2026-01-12 13:40:47
        _STATISTICS_TAGS: BPS DURATION NUMBER_OF_FRAMES NUMBER_OF_BYTES
Input #1, mov,mp4,m4a,3gp,3g2,mj2, from 'F:\Convert\files\[DC] Make Heroine ga Oosugiru - 07_Telegram.mp4':
  Metadata:
    major_brand     : isom
    minor_version   : 512
    compatible_brands: isomiso2avc1mp41
    encoder         : Lavf60.16.100
  Duration: 00:24:06.74, start: 0.000000, bitrate: 3764 kb/s
  Stream #1:0[0x1](und): Video: h264 (High) (avc1 / 0x31637661), yuv420p(tv, bt709, progressive), 1920x1080 [SAR 1:1 DAR 16:9], 3616 kb/s, 23.98 fps, 23.98 tbr, 24k tbn (default)
      Metadata:
        handler_name    : VideoHandler
        vendor_id       : [0][0][0][0]
        encoder         : Lavc60.31.102 h264_qsv
  Stream #1:1[0x2](und): Audio: aac (HE-AACv2) (mp4a / 0x6134706D), 48000 Hz, stereo, fltp, 144 kb/s (default)
      Metadata:
        handler_name    : SoundHandler
        vendor_id       : [0][0][0][0]
Stream mapping:
  Stream #0:0 (hevc) -> settb:default
  Stream #1:0 (h264) -> settb:default
  psnr:default -> Stream #0:0 (wrapped_avframe)
  Stream #0:1 -> #0:1 (aac (native) -> pcm_s16le (native))
Output #0, null, to 'pipe:':
  Metadata:
    COMPATIBLE_BRANDS: isomiso2avc1mp41
    MAJOR_BRAND     : isom
    MINOR_VERSION   : 512
    encoder         : Lavf61.7.100
  Stream #0:0: Video: wrapped_avframe, yuv420p10le(tv, bt709, progressive), 1920x1080 [SAR 1:1 DAR 16:9], q=2-31, 200 kb/s, 23.98 fps, 23.98 tbn
      Metadata:
        encoder         : Lavc61.19.100 wrapped_avframe
  Stream #0:1: Audio: pcm_s16le, 48000 Hz, stereo, s16, 1536 kb/s (default)
      Metadata:
        HANDLER_NAME    : SoundHandler
        VENDOR_ID       : [0][0][0][0]
        _STATISTICS_TAGS: BPS DURATION NUMBER_OF_FRAMES NUMBER_OF_BYTES
        BPS             : 193194
        DURATION        : 00:24:06.784000000
        NUMBER_OF_FRAMES: 67819
        NUMBER_OF_BYTES : 34938755
        _STATISTICS_WRITING_APP: mkvpropedit v94.0 ('Initiate') 64-bit
        _STATISTICS_WRITING_DATE_UTC: 2026-01-12 13:40:47
        encoder         : Lavc61.19.100 pcm_s16le
frame=  133 fps=0.0 q=-0.0 size=N/A time=00:00:05.54 bitrate=N/A speed=10.8x    frame=  314 fps=302 q=-0.0 size=N/A time=00:00:13.09 bitrate=N/A speed=12.6x    frame=  512 fps=330 q=-0.0 size=N/A time=00:00:21.35 bitrate=N/A speed=13.8x    frame=  709 fps=344 q=-0.0 size=N/A time=00:00:29.57 bitrate=N/A speed=14.4x    frame=  889 fps=346 q=-0.0 size=N/A time=00:00:37.07 bitrate=N/A speed=14.4x    frame= 1024 fps=330 q=-0.0 size=N/A time=00:00:42.70 bitrate=N/A speed=13.8x    frame= 1181 fps=327 q=-0.0 size=N/A time=00:00:49.25 bitrate=N/A speed=13.7x    frame= 1330 fps=322 q=-0.0 size=N/A time=00:00:55.47 bitrate=N/A speed=13.4x    frame= 1490 fps=321 q=-0.0 size=N/A time=00:01:02.14 bitrate=N/A speed=13.4x    frame= 1630 fps=316 q=-0.0 size=N/A time=00:01:07.98 bitrate=N/A speed=13.2x    frame= 1795 fps=316 q=-0.0 size=N/A time=00:01:14.86 bitrate=N/A speed=13.2x    frame= 1935 fps=313 q=-0.0 size=N/A time=00:01:20.70 bitrate=N/A speed=  13x    frame= 2069 fps=309 q=-0.0 size=N/A time=00:01:26.29 bitrate=N/A speed=12.9x    frame= 2211 fps=306 q=-0.0 size=N/A time=00:01:32.21 bitrate=N/A speed=12.8x    frame= 2363 fps=305 q=-0.0 size=N/A time=00:01:38.55 bitrate=N/A speed=12.7x    frame= 2486 fps=301 q=-0.0 size=N/A time=00:01:43.68 bitrate=N/A speed=12.6x    frame= 2640 fps=301 q=-0.0 size=N/A time=00:01:50.11 bitrate=N/A speed=12.5x    frame= 2818 fps=304 q=-0.0 size=N/A time=00:01:57.53 bitrate=N/A speed=12.7x    frame= 2985 fps=305 q=-0.0 size=N/A time=00:02:04.49 bitrate=N/A speed=12.7x    frame= 3183 fps=308 q=-0.0 size=N/A time=00:02:12.75 bitrate=N/A speed=12.9x    frame= 3372 fps=311 q=-0.0 size=N/A time=00:02:20.64 bitrate=N/A speed=  13x    frame= 3549 fps=313 q=-0.0 size=N/A time=00:02:28.02 bitrate=N/A speed=13.1x    frame= 3752 fps=316 q=-0.0 size=N/A time=00:02:36.48 bitrate=N/A speed=13.2x    frame= 3939 fps=318 q=-0.0 size=N/A time=00:02:44.28 bitrate=N/A speed=13.3x    frame= 4122 fps=320 q=-0.0 size=N/A time=00:02:51.92 bitrate=N/A speed=13.3x    frame= 4297 fps=320 q=-0.0 size=N/A time=00:02:59.22 bitrate=N/A speed=13.4x    frame= 4488 fps=322 q=-0.0 size=N/A time=00:03:07.18 bitrate=N/A speed=13.4x    frame= 4676 fps=324 q=-0.0 size=N/A time=00:03:15.02 bitrate=N/A speed=13.5x    frame= 4877 fps=326 q=-0.0 size=N/A time=00:03:23.41 bitrate=N/A speed=13.6x    frame= 5069 fps=328 q=-0.0 size=N/A time=00:03:31.41 bitrate=N/A speed=13.7x    frame= 5256 fps=329 q=-0.0 size=N/A time=00:03:39.21 bitrate=N/A speed=13.7x    frame= 5448 fps=330 q=-0.0 size=N/A time=00:03:47.22 bitrate=N/A speed=13.8x    frame= 5631 fps=331 q=-0.0 size=N/A time=00:03:54.85 bitrate=N/A speed=13.8x    frame= 5828 fps=332 q=-0.0 size=N/A time=00:04:03.07 bitrate=N/A speed=13.9x    frame= 6016 fps=333 q=-0.0 size=N/A time=00:04:10.91 bitrate=N/A speed=13.9x    frame= 6203 fps=334 q=-0.0 size=N/A time=00:04:18.71 bitrate=N/A speed=13.9x    frame= 6394 fps=335 q=-0.0 size=N/A time=00:04:26.68 bitrate=N/A speed=  14x    frame= 6592 fps=336 q=-0.0 size=N/A time=00:04:34.94 bitrate=N/A speed=  14x    frame= 6756 fps=336 q=-0.0 size=N/A time=00:04:41.78 bitrate=N/A speed=  14x    frame= 6946 fps=337 q=-0.0 size=N/A time=00:04:49.70 bitrate=N/A speed=  14x    frame= 7132 fps=337 q=-0.0 size=N/A time=00:04:57.46 bitrate=N/A speed=14.1x    frame= 7316 fps=338 q=-0.0 size=N/A time=00:05:05.13 bitrate=N/A speed=14.1x    frame= 7500 fps=338 q=-0.0 size=N/A time=00:05:12.81 bitrate=N/A speed=14.1x    frame= 7678 fps=338 q=-0.0 size=N/A time=00:05:20.23 bitrate=N/A speed=14.1x    frame= 7865 fps=339 q=-0.0 size=N/A time=00:05:28.03 bitrate=N/A speed=14.1x    frame= 8047 fps=339 q=-0.0 size=N/A time=00:05:35.62 bitrate=N/A speed=14.1x    frame= 8230 fps=340 q=-0.0 size=N/A time=00:05:43.25 bitrate=N/A speed=14.2x    frame= 8415 fps=340 q=-0.0 size=N/A time=00:05:50.97 bitrate=N/A speed=14.2x    frame= 8600 fps=340 q=-0.0 size=N/A time=00:05:58.69 bitrate=N/A speed=14.2x    frame= 8786 fps=341 q=-0.0 size=N/A time=00:06:06.44 bitrate=N/A speed=14.2x    frame= 8963 fps=341 q=-0.0 size=N/A time=00:06:13.83 bitrate=N/A speed=14.2x    frame= 9160 fps=342 q=-0.0 size=N/A time=00:06:22.04 bitrate=N/A speed=14.2x    frame= 9323 fps=341 q=-0.0 size=N/A time=00:06:28.84 bitrate=N/A speed=14.2x    frame= 9514 fps=342 q=-0.0 size=N/A time=00:06:36.81 bitrate=N/A speed=14.3x    frame= 9709 fps=342 q=-0.0 size=N/A time=00:06:44.94 bitrate=N/A speed=14.3x    frame= 9891 fps=342 q=-0.0 size=N/A time=00:06:52.53 bitrate=N/A speed=14.3x    frame=10066 fps=342 q=-0.0 size=N/A time=00:06:59.83 bitrate=N/A speed=14.3x    frame=10262 fps=343 q=-0.0 size=N/A time=00:07:08.01 bitrate=N/A speed=14.3x    frame=10437 fps=343 q=-0.0 size=N/A time=00:07:15.30 bitrate=N/A speed=14.3x    frame=10633 fps=344 q=-0.0 size=N/A time=00:07:23.48 bitrate=N/A speed=14.3x    frame=10819 fps=344 q=-0.0 size=N/A time=00:07:31.24 bitrate=N/A speed=14.3x    frame=11000 fps=344 q=-0.0 size=N/A time=00:07:38.79 bitrate=N/A speed=14.4x    frame=11177 fps=344 q=-0.0 size=N/A time=00:07:46.17 bitrate=N/A speed=14.4x    frame=11364 fps=344 q=-0.0 size=N/A time=00:07:53.97 bitrate=N/A speed=14.4x    frame=11557 fps=345 q=-0.0 size=N/A time=00:08:02.02 bitrate=N/A speed=14.4x    frame=11725 fps=345 q=-0.0 size=N/A time=00:08:09.03 bitrate=N/A speed=14.4x    frame=11912 fps=345 q=-0.0 size=N/A time=00:08:16.82 bitrate=N/A speed=14.4x    frame=12108 fps=345 q=-0.0 size=N/A time=00:08:25.00 bitrate=N/A speed=14.4x    frame=12297 fps=346 q=-0.0 size=N/A time=00:08:32.88 bitrate=N/A speed=14.4x    frame=12483 fps=346 q=-0.0 size=N/A time=00:08:40.64 bitrate=N/A speed=14.4x    frame=12673 fps=346 q=-0.0 size=N/A time=00:08:48.56 bitrate=N/A speed=14.4x    frame=12854 fps=346 q=-0.0 size=N/A time=00:08:56.11 bitrate=N/A speed=14.4x    frame=13036 fps=346 q=-0.0 size=N/A time=00:09:03.70 bitrate=N/A speed=14.4x    frame=13207 fps=346 q=-0.0 size=N/A time=00:09:10.84 bitrate=N/A speed=14.4x    frame=13385 fps=346 q=-0.0 size=N/A time=00:09:18.26 bitrate=N/A speed=14.4x    frame=13550 fps=346 q=-0.0 size=N/A time=00:09:25.14 bitrate=N/A speed=14.4x    frame=13735 fps=346 q=-0.0 size=N/A time=00:09:32.86 bitrate=N/A speed=14.4x    frame=13921 fps=346 q=-0.0 size=N/A time=00:09:40.62 bitrate=N/A speed=14.4x    frame=14086 fps=346 q=-0.0 size=N/A time=00:09:47.50 bitrate=N/A speed=14.4x    frame=14237 fps=345 q=-0.0 size=N/A time=00:09:53.80 bitrate=N/A speed=14.4x    frame=14426 fps=345 q=-0.0 size=N/A time=00:10:01.68 bitrate=N/A speed=14.4x    frame=14595 fps=345 q=-0.0 size=N/A time=00:10:08.73 bitrate=N/A speed=14.4x    frame=14773 fps=345 q=-0.0 size=N/A time=00:10:16.15 bitrate=N/A speed=14.4x    frame=14955 fps=345 q=-0.0 size=N/A time=00:10:23.74 bitrate=N/A speed=14.4x    frame=15113 fps=345 q=-0.0 size=N/A time=00:10:30.33 bitrate=N/A speed=14.4x    frame=15274 fps=344 q=-0.0 size=N/A time=00:10:37.05 bitrate=N/A speed=14.4x    frame=15461 fps=344 q=-0.0 size=N/A time=00:10:44.85 bitrate=N/A speed=14.4x    frame=15637 fps=344 q=-0.0 size=N/A time=00:10:52.19 bitrate=N/A speed=14.4x    frame=15826 fps=345 q=-0.0 size=N/A time=00:11:00.07 bitrate=N/A speed=14.4x    frame=16011 fps=345 q=-0.0 size=N/A time=00:11:07.79 bitrate=N/A speed=14.4x    frame=16206 fps=345 q=-0.0 size=N/A time=00:11:15.92 bitrate=N/A speed=14.4x    frame=16377 fps=345 q=-0.0 size=N/A time=00:11:23.05 bitrate=N/A speed=14.4x    frame=16546 fps=345 q=-0.0 size=N/A time=00:11:30.10 bitrate=N/A speed=14.4x    frame=16728 fps=345 q=-0.0 size=N/A time=00:11:37.69 bitrate=N/A speed=14.4x    frame=16920 fps=345 q=-0.0 size=N/A time=00:11:45.70 bitrate=N/A speed=14.4x    frame=17105 fps=345 q=-0.0 size=N/A time=00:11:53.42 bitrate=N/A speed=14.4x    frame=17291 fps=345 q=-0.0 size=N/A time=00:12:01.17 bitrate=N/A speed=14.4x    frame=17481 fps=346 q=-0.0 size=N/A time=00:12:09.10 bitrate=N/A speed=14.4x    frame=17653 fps=346 q=-0.0 size=N/A time=00:12:16.27 bitrate=N/A speed=14.4x    frame=17832 fps=346 q=-0.0 size=N/A time=00:12:23.74 bitrate=N/A speed=14.4x    frame=18024 fps=346 q=-0.0 size=N/A time=00:12:31.75 bitrate=N/A speed=14.4x    frame=18201 fps=346 q=-0.0 size=N/A time=00:12:39.13 bitrate=N/A speed=14.4x    frame=18381 fps=346 q=-0.0 size=N/A time=00:12:46.64 bitrate=N/A speed=14.4x    frame=18568 fps=346 q=-0.0 size=N/A time=00:12:54.44 bitrate=N/A speed=14.4x    frame=18758 fps=346 q=-0.0 size=N/A time=00:13:02.36 bitrate=N/A speed=14.4x    frame=18935 fps=346 q=-0.0 size=N/A time=00:13:09.74 bitrate=N/A speed=14.4x    frame=19105 fps=346 q=-0.0 size=N/A time=00:13:16.83 bitrate=N/A speed=14.4x    frame=19293 fps=346 q=-0.0 size=N/A time=00:13:24.67 bitrate=N/A speed=14.4x    frame=19476 fps=346 q=-0.0 size=N/A time=00:13:32.31 bitrate=N/A speed=14.4x    frame=19669 fps=347 q=-0.0 size=N/A time=00:13:40.36 bitrate=N/A speed=14.5x    frame=19855 fps=347 q=-0.0 size=N/A time=00:13:48.11 bitrate=N/A speed=14.5x    frame=20054 fps=347 q=-0.0 size=N/A time=00:13:56.41 bitrate=N/A speed=14.5x    frame=20240 fps=347 q=-0.0 size=N/A time=00:14:04.17 bitrate=N/A speed=14.5x    frame=20428 fps=347 q=-0.0 size=N/A time=00:14:12.01 bitrate=N/A speed=14.5x    frame=20566 fps=347 q=-0.0 size=N/A time=00:14:17.77 bitrate=N/A speed=14.5x    frame=20746 fps=347 q=-0.0 size=N/A time=00:14:25.28 bitrate=N/A speed=14.5x    frame=20942 fps=347 q=-0.0 size=N/A time=00:14:33.45 bitrate=N/A speed=14.5x    frame=21126 fps=347 q=-0.0 size=N/A time=00:14:41.13 bitrate=N/A speed=14.5x    frame=21297 fps=347 q=-0.0 size=N/A time=00:14:48.26 bitrate=N/A speed=14.5x    frame=21486 fps=347 q=-0.0 size=N/A time=00:14:56.14 bitrate=N/A speed=14.5x    frame=21667 fps=347 q=-0.0 size=N/A time=00:15:03.69 bitrate=N/A speed=14.5x    frame=21857 fps=347 q=-0.0 size=N/A time=00:15:11.61 bitrate=N/A speed=14.5x    frame=22040 fps=347 q=-0.0 size=N/A time=00:15:19.25 bitrate=N/A speed=14.5x    frame=22218 fps=347 q=-0.0 size=N/A time=00:15:26.67 bitrate=N/A speed=14.5x    frame=22403 fps=347 q=-0.0 size=N/A time=00:15:34.39 bitrate=N/A speed=14.5x    frame=22589 fps=348 q=-0.0 size=N/A time=00:15:42.14 bitrate=N/A speed=14.5x    frame=22774 fps=348 q=-0.0 size=N/A time=00:15:49.86 bitrate=N/A speed=14.5x    frame=22937 fps=347 q=-0.0 size=N/A time=00:15:56.66 bitrate=N/A speed=14.5x    frame=23120 fps=347 q=-0.0 size=N/A time=00:16:04.29 bitrate=N/A speed=14.5x    frame=23287 fps=347 q=-0.0 size=N/A time=00:16:11.26 bitrate=N/A speed=14.5x    frame=23472 fps=347 q=-0.0 size=N/A time=00:16:18.97 bitrate=N/A speed=14.5x    frame=23663 fps=347 q=-0.0 size=N/A time=00:16:26.94 bitrate=N/A speed=14.5x    frame=23846 fps=348 q=-0.0 size=N/A time=00:16:34.57 bitrate=N/A speed=14.5x    frame=24037 fps=348 q=-0.0 size=N/A time=00:16:42.54 bitrate=N/A speed=14.5x    frame=24226 fps=348 q=-0.0 size=N/A time=00:16:50.42 bitrate=N/A speed=14.5x    frame=24415 fps=348 q=-0.0 size=N/A time=00:16:58.30 bitrate=N/A speed=14.5x    frame=24605 fps=348 q=-0.0 size=N/A time=00:17:06.23 bitrate=N/A speed=14.5x    frame=24798 fps=348 q=-0.0 size=N/A time=00:17:14.28 bitrate=N/A speed=14.5x    frame=24983 fps=348 q=-0.0 size=N/A time=00:17:21.99 bitrate=N/A speed=14.5x    frame=25173 fps=349 q=-0.0 size=N/A time=00:17:29.92 bitrate=N/A speed=14.5x    frame=25369 fps=349 q=-0.0 size=N/A time=00:17:38.09 bitrate=N/A speed=14.5x    frame=25533 fps=349 q=-0.0 size=N/A time=00:17:44.93 bitrate=N/A speed=14.5x    frame=25719 fps=349 q=-0.0 size=N/A time=00:17:52.69 bitrate=N/A speed=14.5x    frame=25906 fps=349 q=-0.0 size=N/A time=00:18:00.49 bitrate=N/A speed=14.5x    frame=26100 fps=349 q=-0.0 size=N/A time=00:18:08.58 bitrate=N/A speed=14.6x    frame=26289 fps=349 q=-0.0 size=N/A time=00:18:16.47 bitrate=N/A speed=14.6x    frame=26491 fps=349 q=-0.0 size=N/A time=00:18:24.89 bitrate=N/A speed=14.6x    frame=26676 fps=349 q=-0.0 size=N/A time=00:18:32.61 bitrate=N/A speed=14.6x    frame=26865 fps=349 q=-0.0 size=N/A time=00:18:40.49 bitrate=N/A speed=14.6x    frame=27038 fps=349 q=-0.0 size=N/A time=00:18:47.70 bitrate=N/A speed=14.6x    frame=27213 fps=349 q=-0.0 size=N/A time=00:18:55.00 bitrate=N/A speed=14.6x    frame=27394 fps=349 q=-0.0 size=N/A time=00:19:02.55 bitrate=N/A speed=14.6x    frame=27563 fps=349 q=-0.0 size=N/A time=00:19:09.60 bitrate=N/A speed=14.6x    frame=27751 fps=349 q=-0.0 size=N/A time=00:19:17.44 bitrate=N/A speed=14.6x    frame=27910 fps=349 q=-0.0 size=N/A time=00:19:24.07 bitrate=N/A speed=14.6x    frame=28090 fps=349 q=-0.0 size=N/A time=00:19:31.58 bitrate=N/A speed=14.6x    frame=28284 fps=349 q=-0.0 size=N/A time=00:19:39.67 bitrate=N/A speed=14.6x    frame=28464 fps=349 q=-0.0 size=N/A time=00:19:47.18 bitrate=N/A speed=14.6x    frame=28656 fps=349 q=-0.0 size=N/A time=00:19:55.19 bitrate=N/A speed=14.6x    frame=28828 fps=349 q=-0.0 size=N/A time=00:20:02.36 bitrate=N/A speed=14.6x    frame=28994 fps=349 q=-0.0 size=N/A time=00:20:09.29 bitrate=N/A speed=14.6x    frame=29162 fps=349 q=-0.0 size=N/A time=00:20:16.29 bitrate=N/A speed=14.6x    frame=29342 fps=349 q=-0.0 size=N/A time=00:20:23.80 bitrate=N/A speed=14.5x    frame=29506 fps=349 q=-0.0 size=N/A time=00:20:30.64 bitrate=N/A speed=14.5x    frame=29678 fps=349 q=-0.0 size=N/A time=00:20:37.81 bitrate=N/A speed=14.5x    frame=29854 fps=349 q=-0.0 size=N/A time=00:20:45.16 bitrate=N/A speed=14.5x    frame=30009 fps=348 q=-0.0 size=N/A time=00:20:51.62 bitrate=N/A speed=14.5x    frame=30183 fps=348 q=-0.0 size=N/A time=00:20:58.88 bitrate=N/A speed=14.5x    frame=30346 fps=348 q=-0.0 size=N/A time=00:21:05.68 bitrate=N/A speed=14.5x    frame=30532 fps=348 q=-0.0 size=N/A time=00:21:13.43 bitrate=N/A speed=14.5x    frame=30723 fps=348 q=-0.0 size=N/A time=00:21:21.40 bitrate=N/A speed=14.5x    frame=30918 fps=348 q=-0.0 size=N/A time=00:21:29.53 bitrate=N/A speed=14.5x    frame=31100 fps=348 q=-0.0 size=N/A time=00:21:37.12 bitrate=N/A speed=14.5x    frame=31286 fps=348 q=-0.0 size=N/A time=00:21:44.88 bitrate=N/A speed=14.5x    frame=31468 fps=348 q=-0.0 size=N/A time=00:21:52.47 bitrate=N/A speed=14.5x    frame=31649 fps=348 q=-0.0 size=N/A time=00:22:00.02 bitrate=N/A speed=14.5x    frame=31825 fps=348 q=-0.0 size=N/A time=00:22:07.36 bitrate=N/A speed=14.5x    frame=31997 fps=348 q=-0.0 size=N/A time=00:22:14.54 bitrate=N/A speed=14.5x    frame=32184 fps=348 q=-0.0 size=N/A time=00:22:22.34 bitrate=N/A speed=14.5x    frame=32375 fps=349 q=-0.0 size=N/A time=00:22:30.30 bitrate=N/A speed=14.5x    frame=32565 fps=349 q=-0.0 size=N/A time=00:22:38.23 bitrate=N/A speed=14.5x    frame=32706 fps=348 q=-0.0 size=N/A time=00:22:44.11 bitrate=N/A speed=14.5x    frame=32843 fps=348 q=-0.0 size=N/A time=00:22:49.82 bitrate=N/A speed=14.5x    frame=33016 fps=348 q=-0.0 size=N/A time=00:22:57.04 bitrate=N/A speed=14.5x    frame=33188 fps=348 q=-0.0 size=N/A time=00:23:04.21 bitrate=N/A speed=14.5x    frame=33369 fps=348 q=-0.0 size=N/A time=00:23:11.76 bitrate=N/A speed=14.5x    frame=33524 fps=347 q=-0.0 size=N/A time=00:23:18.23 bitrate=N/A speed=14.5x    frame=33677 fps=347 q=-0.0 size=N/A time=00:23:24.61 bitrate=N/A speed=14.5x    frame=33805 fps=347 q=-0.0 size=N/A time=00:23:29.95 bitrate=N/A speed=14.5x    frame=33933 fps=346 q=-0.0 size=N/A time=00:23:35.28 bitrate=N/A speed=14.4x    frame=34091 fps=346 q=-0.0 size=N/A time=00:23:41.87 bitrate=N/A speed=14.4x    frame=34249 fps=346 q=-0.0 size=N/A time=00:23:48.46 bitrate=N/A speed=14.4x    frame=34372 fps=345 q=-0.0 size=N/A time=00:23:53.59 bitrate=N/A speed=14.4x    frame=34509 fps=345 q=-0.0 size=N/A time=00:23:59.31 bitrate=N/A speed=14.4x    [Parsed_psnr_16 @ 00000217b2bd0380] PSNR y:48.950409 u:50.332075 v:50.382113 average:49.370613 min:37.952505 max:inf
[out#0/null @ 00000217a4f58a00] video:14903KiB audio:271276KiB subtitle:0KiB other streams:0KiB global headers:0KiB muxing overhead: unknown
frame=34683 fps=345 q=-0.0 Lsize=N/A time=00:24:06.57 bitrate=N/A speed=14.4x    
